<svg version="1" xmlns="http://www.w3.org/2000/svg" width="346.667" height="346.667" viewBox="0 0 260.000000 260.000000"><path d="M115.3 58.2C84.6 89.1 77 97.3 75.9 100.5c-.9 3.1-1.2 17.7-1.2 63 0 57 0 59.2 2 63.5 1.1 2.5 3.3 5.8 4.9 7.4 6.2 6.2 4.6 6.1 64.4 6.3 51.6.1 54.7 0 58.5-1.8 4.9-2.3 7.6-4.5 10.2-8.4 1.1-1.7 9.9-21.2 19.4-43.5l17.4-40.5.1-16c.1-17.8-.7-21.1-6-26.6-6.5-6.8-7.2-6.9-48.5-7l-37.2-.1.5-2.6c.2-1.5 1.2-6.3 2.1-10.7.9-4.4 1.9-8.9 2.1-10 .2-1.1.6-2.9.8-4 5.3-23.7 5.8-29.2 3.4-34-1.5-2.7-13.5-15.5-14.6-15.5-.4 0-17.9 17.2-38.9 38.2zM10.9 107.8l-2.6.3v132.5l21.3.2c16.2.2 21.4-.1 22.1-1 1.3-2.1 1-131-.3-131.5s-36.7-.9-40.5-.5z"/></svg>